<svg xmlns="http://www.w3.org/2000/svg" viewBox="0 0 381 192"><defs><style>.cls-1{fill:#fff;}</style></defs><title>Asset 1</title><g id="Layer_2" data-name="Layer 2"><g id="Layer_1-2" data-name="Layer 1"><path class="cls-1" d="M89,2H19L0,187H32l4-24H71l5,24h29ZM43,128l5-26H60l5,26Z"/><polyline class="cls-1" points="146 0 137 188 111 188 111 2.94 146 0"/><path class="cls-1" d="M276,191h29l5-24h35l4,24h32L362,6H292Zm40-59,5-26h12l5,26Z"/><polygon class="cls-1" points="270 192 270 6.94 235 4 244 192 270 192"/><polygon class="cls-1" points="158 82 152 112 226 112 220 82 158 82"/></g></g></svg>